<svg width="92" height="92" viewBox="0 0 92 92" fill="none" xmlns="http://www.w3.org/2000/svg">
<g id="Frame">
<path id="Vector" d="M79.9656 41.4756L16.8145 6.79255C14.1165 5.3278 11.7024 5.465 10.2346 6.83784C9.19356 7.79897 8.625 9.35497 8.625 11.3685V80.597C8.625 82.6117 9.24028 84.1677 10.2346 85.1279C11.7494 86.5466 14.1165 86.6836 16.8145 85.173L79.9656 50.4897C84.5115 48.0189 84.5115 43.9928 79.9656 41.4756Z" fill="#F1471D"/>
<path id="Vector_2" d="M74.5666 53.5362C75.325 51.02 75.7041 48.3197 75.7041 45.5751C75.7041 29.4227 62.1162 16.2908 45.4056 16.2908C28.6947 16.2908 15.1082 29.4227 15.1082 45.5751C15.1082 59.1188 24.6239 70.5123 37.5478 73.8532L74.5666 53.5362Z" fill="#FCD117"/>
<path id="Vector_3" d="M64.9353 46.006C64.9353 56.1141 56.4586 64.3086 45.9995 64.3086C35.541 64.3086 27.0637 56.1141 27.0637 46.006C27.0637 35.8973 35.541 27.7034 45.9995 27.7034C56.4583 27.7031 64.9353 35.897 64.9353 46.006Z" fill="#F48B15"/>
<path id="Vector_4" d="M45.9998 36.3976V47.6521C45.3369 47.2877 44.5798 47.0581 43.775 47.0581C41.3135 47.0581 39.3723 48.9812 39.3723 51.3129C39.3723 53.6936 41.3602 55.5693 43.775 55.5693C46.2374 55.5693 48.3672 53.6466 48.3672 51.3129V40.973H52.6274V36.3976H45.9998Z" fill="white"/>
</g>
</svg>
