<svg width="146" height="146" viewBox="0 0 146 146" fill="none" xmlns="http://www.w3.org/2000/svg">
<g id="Frame">
<circle id="Ellipse" cx="72.4983" cy="72.4983" r="63.4983" fill="#FF5502"/>
<g id="Vector">
<path d="M109.182 95.8124H71.8328V50.6914C75.2933 47.5314 79.7752 45.6249 84.6714 45.6249C95.5064 45.6249 104.313 54.9609 104.51 66.5579C105.971 66.0023 107.543 65.6999 109.182 65.6999C116.917 65.6999 123.187 72.4408 123.187 80.7562C123.187 89.0715 116.917 95.8124 109.182 95.8124Z" fill="white"/>
<path d="M68.4375 54.7499H63.875V95.8124H68.4375V54.7499Z" fill="white"/>
<path d="M54.75 59.3124H59.3125V95.8124H54.75V59.3124Z" fill="white"/>
<path d="M50.1875 68.4374H45.625V95.8124H50.1875V68.4374Z" fill="white"/>
<path d="M36.5 63.8749H41.0625V95.8124H36.5V63.8749Z" fill="white"/>
<path d="M31.9375 72.9999H27.375V95.8124H31.9375V72.9999Z" fill="white"/>
</g>
</g>
</svg>
