<svg width="115" height="115" viewBox="0 0 115 115" fill="none" xmlns="http://www.w3.org/2000/svg">
<g id="Frame">
<circle id="Ellipse" cx="57" cy="57" r="50" fill="#F8591A"/>
<path id="Vector" d="M80.6748 65.4321C77.6865 64.1716 75.1955 61.6095 73.3384 59.0144C71.2072 56.0348 69.0245 53.1065 66.6363 50.3293C64.3906 47.7208 62.0025 45.221 59.4087 42.9621C56.8203 40.7063 54.0032 38.561 50.9008 37.0709C48.821 36.068 46.6785 35.314 44.4614 34.6779C44.2101 34.608 43.5331 34.3006 43.3332 34.6094C43.2103 34.8008 43.3044 35.1582 43.33 35.3696C43.3844 35.8296 43.4388 36.2884 43.4959 36.7465C44.1588 42.2491 44.4102 48.0577 42.7016 53.4008C41.7847 56.2807 40.1133 58.9123 37.8849 60.9522C36.0366 62.6408 33.3997 64.3512 30.7801 64.229C23.2015 63.9087 26.6026 51.4013 28.0317 47.1892C32.3243 34.7464 44.3939 26.1283 57.5001 26.1283C74.5778 26.1283 88.7668 40.5409 88.6566 57.5004C88.6164 62.5404 86.9996 68.0996 80.6748 65.4321ZM95.473 46.5165C90.7136 30.0306 75.5217 17.9688 57.5001 17.9688C39.4813 17.9688 24.2866 30.0306 19.5269 46.5165C17.8279 52.4051 17.5218 58.6437 18.6319 64.6688C22.0044 83.0811 38.118 97.0313 57.5001 97.0313C76.8854 97.0313 92.996 83.0811 96.3736 64.6688C97.479 58.6428 97.1676 52.4057 95.473 46.5165Z" fill="white"/>
</g>
</svg>
