<svg width="90" height="90" viewBox="0 0 90 90" fill="none" xmlns="http://www.w3.org/2000/svg">
<g id="Frame">
<path id="Vector" d="M5.625 44.9943C5.625 66.7372 23.2563 84.3699 45.0015 84.3699C66.7467 84.3699 84.375 66.7372 84.375 44.9943C84.375 23.2458 66.7467 5.61987 45.0015 5.61987C23.2563 5.61987 5.625 23.2458 5.625 44.9943Z" fill="url(#paint0_linear_2_543)"/>
<path id="Vector_2" fill-rule="evenodd" clip-rule="evenodd" d="M55.2538 70.6647C56.2862 69.6705 62.3449 63.8362 65.8296 59.9932C69.1509 56.3206 70.8211 51.5952 70.5211 46.6952C70.213 41.6488 67.8578 36.9753 63.8847 33.5433C57.3232 27.87 46.7178 27.9853 40.2442 33.7951C37.8828 35.9112 35.2154 38.8139 35.1016 38.9383C33.3993 40.7894 33.5251 43.6715 35.3728 45.3728C37.2236 47.0713 40.0973 46.9508 41.8041 45.1017C41.827 45.0744 44.2873 42.3971 46.3171 40.5794C49.7253 37.5198 55.176 38.0501 57.9358 40.4361C60.0381 42.2507 61.2801 44.6696 61.4377 47.2468C61.586 49.6789 60.7494 52.0356 59.0868 53.8716C55.8026 57.501 49.7567 63.3189 48.9212 64.1227C48.8623 64.1795 48.8295 64.2112 48.825 64.2156C47.0095 65.9549 46.9433 68.8326 48.6816 70.6536C49.5752 71.5875 50.7686 72.0604 51.9717 72.0604C53.0998 72.0604 54.232 71.6404 55.1114 70.8018C55.1307 70.7833 55.1791 70.7366 55.2538 70.6647ZM26.6705 56.131C29.8998 58.9237 34.1061 60.3175 38.3183 60.3175C42.6685 60.3175 47.0239 58.8328 50.3105 55.8802C52.4759 53.9354 54.904 51.3317 55.3756 50.8259C55.4179 50.7807 55.4445 50.7522 55.4536 50.7425C57.155 48.8914 57.0317 46.0073 55.1823 44.3078C53.3352 42.604 50.4546 42.7227 48.7545 44.5757C48.7537 44.5767 48.7495 44.5814 48.742 44.5894C48.5479 44.799 46.1921 47.3449 44.2395 49.101C40.8295 52.1547 35.3807 51.6322 32.6176 49.2409C30.5176 47.4249 29.2756 45.0054 29.1166 42.4261C28.9683 39.9965 29.8064 37.6452 31.4689 35.802C34.9869 31.9198 41.6623 25.5274 41.7307 25.4624C43.5472 23.7249 43.609 20.8433 41.8746 19.0242C40.1358 17.2076 37.2584 17.1381 35.4429 18.8779L35.4129 18.9066C34.8518 19.4451 28.3758 25.6574 24.729 29.6866C21.4025 33.3572 19.739 38.0822 20.0331 42.9804C20.3438 48.0294 22.699 52.6997 26.6705 56.131Z" fill="white"/>
</g>
<defs>
<linearGradient id="paint0_linear_2_543" x1="5.625" y1="84.3699" x2="5.625" y2="5.61987" gradientUnits="userSpaceOnUse">
<stop stop-color="#2255FF"/>
<stop offset="1" stop-color="#00AAFF"/>
</linearGradient>
</defs>
</svg>
