<svg width="195" height="195" viewBox="0 0 195 195" fill="none" xmlns="http://www.w3.org/2000/svg">
<g id="Frame">
<circle id="Ellipse" cx="98.5" cy="98.5" r="85.5" fill="#1ED760"/>
<path id="Vector" d="M136.283 131.765C134.825 134.078 131.716 134.725 129.287 133.338C110.144 122.237 86.1435 119.739 57.7702 125.844C55.0494 126.399 52.3287 124.827 51.7457 122.237C51.1627 119.646 52.8146 117.056 55.5353 116.501C86.5322 109.748 113.156 112.616 134.534 125.104C136.963 126.492 137.74 129.452 136.283 131.765ZM146.194 110.673C144.348 113.541 140.461 114.373 137.449 112.708C115.586 99.8495 82.2568 96.1492 56.4098 103.642C53.0089 104.567 49.5108 102.81 48.5391 99.6645C47.5674 96.4267 49.4136 93.0964 52.8146 92.1713C82.3539 83.6606 119.084 87.7309 144.251 102.44C147.068 104.105 148.04 107.805 146.194 110.673ZM147.068 88.656C120.833 73.8547 77.5926 72.4671 52.523 79.6827C48.5391 80.8853 44.2637 78.7576 43.0005 74.8723C41.7373 71.0795 44.0693 67.0091 48.0533 65.8065C76.8153 57.4807 124.622 59.1459 154.745 76.1674C158.34 78.2026 159.506 82.643 157.368 86.0658C155.328 89.5811 150.664 90.7837 147.068 88.656Z" fill="white"/>
</g>
</svg>
