<svg width="64" height="64" viewBox="0 0 64 64" fill="none" xmlns="http://www.w3.org/2000/svg">
<g id="yandex_music">
<path id="Vector" d="M31.4004 60.0001C44.324 60.0001 54.8007 49.9197 54.8007 37.4849C54.8007 25.0501 44.324 14.9697 31.4004 14.9697C18.4767 14.9697 8.00006 25.0501 8.00006 37.4849C8.00006 49.9197 18.4767 60.0001 31.4004 60.0001Z" fill="#FFCC00"/>
<path id="Vector_2" fill-rule="evenodd" clip-rule="evenodd" d="M43.3998 14.5539V35.5589C43.3998 37.6728 43.2414 39.6443 42.9452 40.6498C42.1967 43.1768 40.5748 45.3826 38.3472 46.9027C36.1197 48.4229 33.4199 49.1665 30.6938 49.0107C27.9677 48.8549 25.3783 47.8091 23.3535 46.0459C21.3286 44.2828 19.9894 41.9078 19.557 39.3133C19.1247 36.7188 19.6251 34.06 20.9755 31.7761C22.326 29.4922 24.4457 27.7199 26.9846 26.7519C29.5234 25.7839 32.3295 25.6781 34.9393 26.4519C37.5491 27.2258 39.8065 28.8331 41.3386 31.0083L41.0012 29.029V4L56 8.61784V18.4335L43.3998 14.5539Z" fill="#FF3333"/>
</g>
</svg>
